<?xml version="1.0" encoding="UTF-8" standalone="no"?>
<!DOCTYPE svg PUBLIC "-//W3C//DTD SVG 1.1//EN" "http://www.w3.org/Graphics/SVG/1.1/DTD/svg11.dtd">
<svg width="100%" height="100%" viewBox="0 0 512 512" version="1.1" xmlns="http://www.w3.org/2000/svg" xmlns:xlink="http://www.w3.org/1999/xlink" xml:space="preserve" xmlns:serif="http://www.serif.com/" style="fill-rule:evenodd;clip-rule:evenodd;stroke-linejoin:round;stroke-miterlimit:2;">
    <g transform="matrix(1,0,0,0.994175,-1,-0.994175)">
        <path d="M513,25.028C513,18.656 510.483,12.544 506.003,8.038C501.523,3.532 495.447,1 489.112,1L24.888,1C18.553,1 12.477,3.532 7.997,8.038C3.517,12.544 1,18.656 1,25.028L1,491.972C1,498.344 3.517,504.456 7.997,508.962C12.477,513.468 18.553,516 24.888,516L489.112,516C495.447,516 501.523,513.468 506.003,508.962C510.483,504.456 513,498.344 513,491.972L513,25.028Z"/>
    </g>
    <g transform="matrix(1.68284,0,0,1.68284,-176.692,-232.608)">
        <path id="path21" d="M255,382.886C255,384.64 253.621,386.084 251.868,386.165C246.256,386.417 241.288,387.157 240.305,388.342C237.906,391.232 239.341,393.237 245.711,395.899C249.835,397.622 250.863,398.825 250.483,401.486C249.938,405.312 247.954,405.827 239.88,404.238C229.833,402.26 227.39,398.909 219.053,375.658C215.519,365.804 213.376,361.452 213.328,364.033C213.285,366.302 212.849,368.158 212.36,368.158C211.87,368.158 204.65,361.725 196.316,353.863C187.981,346 179.55,339.163 177.579,338.668C172.247,337.33 169.366,341.219 168.569,350.832C167.73,360.949 165.306,361.61 161.353,352.801C157.646,344.543 157.587,318.273 161.253,308.472C164.152,300.719 161.892,301.538 157.698,309.76C156.043,313.004 153.932,315.658 153.006,315.658C150.581,315.658 152.553,299.065 156.331,287.686L159.392,278.465L156.432,266.686C151.724,247.952 149.713,227.05 150.765,207.781C152.003,185.098 154.184,177.783 159.74,177.681C160.422,177.668 195.601,210.081 198.78,212.037L204.561,215.594L222.03,213.124C231.172,211.832 240.03,211.072 248.878,210.846C250.488,210.811 252.045,211.426 253.196,212.553C254.348,213.679 254.997,215.222 254.997,216.833C255,244.925 255,362.018 255,382.886ZM216.664,321.519C229.438,327.842 244.414,323.421 233.794,316.462C231.122,314.712 229.17,314.533 225.186,315.676C214.863,318.636 204.25,311.339 204.25,301.28C204.25,298.545 203.294,295.767 202.126,295.107C200.958,294.447 197.827,291.208 195.167,287.908C195.167,287.908 193.761,286.163 192.465,284.556C192.205,284.233 191.762,284.125 191.383,284.293C191.004,284.46 190.785,284.86 190.848,285.269C191.035,286.485 191.201,287.565 191.201,287.565C193.182,300.433 204.466,315.481 216.664,321.519ZM164.126,248.657C165.733,252.583 167.114,251.59 175.002,240.844L182.022,231.28L173.725,215.344C169.161,206.579 164.881,199.745 164.214,200.158C162.684,201.103 162.605,244.942 164.126,248.657Z" style="fill:rgb(255,233,157);fill-rule:nonzero;"/>
    </g>
    <g transform="matrix(0.494921,-0.494921,0.488771,0.488771,142.157,289.679)">
        <path d="M369.662,28.812C351.084,10.234 326.348,0.002 300.009,0L300.001,0C273.665,0 248.93,10.23 230.355,28.805L147.617,111.544C141.493,117.668 136.241,124.534 131.959,131.962C124.531,136.244 117.668,141.493 111.548,147.614L28.809,230.353C-9.599,268.762 -9.599,331.258 28.809,369.667C48.012,388.869 73.231,398.47 98.456,398.469C123.681,398.468 148.912,388.865 168.117,369.66L250.854,286.921C256.97,280.806 262.218,273.943 266.501,266.512C273.932,262.229 280.799,256.976 286.924,250.851L369.662,168.112C408.067,129.707 408.067,67.217 369.662,28.812ZM157.51,359.052C124.947,391.612 71.969,391.615 39.415,359.059C6.854,326.498 6.854,273.518 39.415,240.958L122.154,158.219C127.784,152.589 134.142,147.818 141.057,144.037C161.223,132.994 185.37,130.779 207.311,137.961C219.822,142.055 230.905,148.871 240.253,158.219C248.528,166.494 254.81,176.118 258.974,186.874L240.96,204.888C237.625,208.223 233.728,210.759 229.446,212.417C228.365,201.369 223.534,190.996 215.505,182.968C205.006,172.469 190.488,167.412 175.702,169.095C164.85,170.32 154.622,175.247 146.9,182.968L64.162,265.707C45.249,284.621 45.249,315.396 64.162,334.31C73.309,343.457 85.486,348.494 98.453,348.494L98.462,348.494C111.43,348.492 123.61,343.452 132.76,334.303L190.968,276.095C199.575,278.468 208.416,279.654 217.24,279.654C224.703,279.654 232.149,278.804 239.423,277.137L157.51,359.052ZM270.404,175.446C265.604,165.143 259.062,155.814 250.861,147.613C242.664,139.416 233.331,132.873 223.017,128.066L276.317,74.767C282.63,68.453 291.041,64.976 300.001,64.976L300.007,64.976C308.969,64.977 317.383,68.457 323.7,74.774C330.015,81.09 333.494,89.502 333.494,98.462C333.494,107.422 330.015,115.834 323.699,122.15L270.404,175.446ZM204.9,193.575C210.602,199.277 213.964,206.696 214.577,214.576C206.698,213.96 199.28,210.596 193.579,204.895C187.881,199.196 184.516,191.778 183.896,183.894C191.778,184.512 199.199,187.875 204.9,193.575ZM128.07,223.015C132.877,233.329 139.421,242.661 147.618,250.858C155.819,259.059 165.149,265.602 175.449,270.401L122.154,323.697C115.838,330.014 107.424,333.493 98.461,333.495L98.455,333.495C89.496,333.495 81.084,330.018 74.771,323.704C61.706,310.638 61.706,289.379 74.771,276.314L128.07,223.015ZM359.055,157.506L276.317,240.245C270.683,245.88 264.322,250.653 257.406,254.434C237.238,265.48 213.093,267.692 191.155,260.501C178.661,256.421 167.581,249.608 158.224,240.252C149.955,231.984 143.672,222.356 139.498,211.587L157.509,193.575C160.845,190.238 164.743,187.703 169.025,186.046C170.112,197.1 174.945,207.475 182.972,215.502C192.145,224.675 204.371,229.693 217.177,229.693C219.03,229.693 220.897,229.588 222.766,229.375C233.622,228.142 243.851,223.212 251.568,215.495L334.306,132.756C343.455,123.607 348.494,111.428 348.494,98.461C348.494,85.495 343.455,73.315 334.306,64.167C325.157,55.018 312.977,49.978 300.009,49.976L300,49.976C287.034,49.976 274.855,55.013 265.709,64.16L207.505,122.363C191.614,117.987 174.914,117.694 159.041,121.331L240.961,39.411C256.704,23.669 277.67,15 300.001,15L300.008,15C322.34,15.002 343.311,23.674 359.055,39.419C391.612,71.976 391.612,124.949 359.055,157.506Z" style="fill:rgb(255,233,157);fill-rule:nonzero;"/>
    </g>
</svg>
