<?xml version="1.0" encoding="UTF-8" standalone="no"?>
<!DOCTYPE svg PUBLIC "-//W3C//DTD SVG 1.1//EN" "http://www.w3.org/Graphics/SVG/1.1/DTD/svg11.dtd">
<svg width="100%" height="100%" viewBox="0 0 512 512" version="1.1" xmlns="http://www.w3.org/2000/svg" xmlns:xlink="http://www.w3.org/1999/xlink" xml:space="preserve" xmlns:serif="http://www.serif.com/" style="fill-rule:evenodd;clip-rule:evenodd;stroke-linejoin:round;stroke-miterlimit:2;">
    <g transform="matrix(1,0,0,0.994175,-1,-0.994175)">
        <path d="M513,25.028C513,18.656 510.483,12.544 506.003,8.038C501.523,3.532 495.447,1 489.112,1L24.888,1C18.553,1 12.477,3.532 7.997,8.038C3.517,12.544 1,18.656 1,25.028L1,491.972C1,498.344 3.517,504.456 7.997,508.962C12.477,513.468 18.553,516 24.888,516L489.112,516C495.447,516 501.523,513.468 506.003,508.962C510.483,504.456 513,498.344 513,491.972L513,25.028Z"/>
    </g>
    <g transform="matrix(1.00666,0,0,1.00666,-0.510043,-3.92416)">
        <g transform="matrix(1.68284,0,0,1.68284,-176.692,-232.608)">
            <path id="path21" d="M255,382.906C255,384.649 253.629,386.084 251.888,386.164C246.268,386.415 241.289,387.156 240.305,388.342C237.906,391.232 239.341,393.237 245.711,395.899C249.835,397.622 250.863,398.825 250.483,401.486C249.938,405.312 247.954,405.827 239.88,404.238C229.833,402.26 227.39,398.909 219.053,375.658C215.519,365.804 213.376,361.452 213.328,364.033C213.285,366.302 212.849,368.158 212.36,368.158C211.87,368.158 204.65,361.725 196.316,353.863C187.981,346 179.55,339.163 177.579,338.668C172.247,337.33 169.366,341.219 168.569,350.832C167.73,360.949 165.306,361.61 161.353,352.801C157.646,344.543 157.587,318.273 161.253,308.472C164.152,300.719 161.892,301.538 157.698,309.76C156.043,313.004 153.932,315.658 153.006,315.658C150.581,315.658 152.553,299.065 156.331,287.686L159.392,278.465L156.432,266.686C151.724,247.952 149.713,227.05 150.765,207.781C152.003,185.098 154.184,177.783 159.74,177.681C160.422,177.668 195.601,210.081 198.78,212.037L204.561,215.594L222.03,213.124C231.186,211.83 240.057,211.07 248.919,210.845C250.519,210.81 252.065,211.422 253.209,212.541C254.352,213.66 254.997,215.192 254.997,216.792C255,244.821 255,362.086 255,382.906ZM216.664,321.519C229.438,327.842 244.414,323.421 233.794,316.462C231.122,314.712 229.17,314.533 225.186,315.676C214.863,318.636 204.25,311.339 204.25,301.28C204.25,298.545 203.294,295.767 202.126,295.107C200.958,294.447 197.827,291.208 195.167,287.908C195.167,287.908 193.751,286.15 192.451,284.538C192.193,284.218 191.752,284.111 191.376,284.277C191,284.443 190.782,284.84 190.845,285.247C191.033,286.472 191.201,287.565 191.201,287.565C193.182,300.433 204.466,315.481 216.664,321.519ZM164.126,248.657C165.733,252.583 167.114,251.59 175.002,240.844L182.022,231.28L173.725,215.344C169.161,206.579 164.881,199.745 164.214,200.158C162.684,201.103 162.605,244.942 164.126,248.657Z" style="fill:rgb(255,233,157);fill-rule:nonzero;"/>
        </g>
        <g transform="matrix(0.993384,0,0,0.993384,0.506669,3.8982)">
            <path d="M410.046,280.565C410.046,314.931 394.472,346.067 369.356,368.858C367.438,370.58 366.309,373.014 366.233,375.591C366.158,378.168 367.142,380.663 368.957,382.495C369.005,382.582 369.073,382.65 369.14,382.718C372.643,386.254 378.288,386.465 382.045,383.201C411.809,357.001 430.349,320.742 430.349,280.565C430.349,240.388 411.809,204.129 382.031,177.945C378.283,174.688 372.65,174.898 369.155,178.426C369.073,178.48 369.005,178.548 368.938,178.616C367.118,180.453 366.131,182.955 366.207,185.54C366.283,188.124 367.415,190.564 369.339,192.291C394.472,215.062 410.046,246.199 410.046,280.565ZM342.365,219.36C340.504,217.584 339.434,215.134 339.397,212.561C339.36,209.988 340.359,207.508 342.168,205.679C342.143,205.654 342.143,205.654 342.144,205.653C345.769,201.989 351.638,201.835 355.451,205.303C376.638,224.814 389.742,251.304 389.742,280.565C389.742,309.828 376.629,336.319 355.425,355.801C351.627,359.256 345.78,359.103 342.167,355.454C342.146,355.474 342.145,355.473 342.145,355.473C340.328,353.638 339.326,351.149 339.363,348.568C339.399,345.986 340.473,343.527 342.341,341.745C359.135,325.672 369.439,304.184 369.439,280.565C369.439,256.946 359.136,235.458 342.365,219.36ZM328.833,280.565C328.833,293.648 323.564,305.637 314.845,315.001C311.405,318.723 311.505,324.494 315.073,328.095C315.121,328.198 315.196,328.274 315.271,328.35C317.054,330.15 319.481,331.164 322.015,331.168C324.548,331.171 326.978,330.164 328.766,328.369C341.408,315.612 349.136,298.906 349.136,280.565C349.136,262.223 341.408,245.517 328.738,232.789C326.957,231.001 324.538,229.998 322.015,230.002C319.492,230.005 317.075,231.015 315.299,232.807C315.196,232.856 315.121,232.932 315.045,233.008C311.464,236.623 311.363,242.417 314.817,246.155C323.564,255.492 328.833,267.482 328.833,280.565ZM308.529,280.565C308.529,273.47 306.182,266.898 302.179,261.351C300.578,259.142 298.088,257.747 295.369,257.537C292.649,257.327 289.975,258.323 288.054,260.26C283.891,264.457 278.545,269.85 274.408,274.023C270.817,277.645 270.817,283.485 274.407,287.108C278.543,291.281 283.887,296.674 288.047,300.872C289.967,302.81 292.642,303.807 295.362,303.598C298.082,303.388 300.572,301.995 302.174,299.787C306.18,294.237 308.529,287.662 308.529,280.565Z" style="fill:rgb(255,233,157);"/>
        </g>
        <g transform="matrix(1,0,0,1,0,-3.08565)">
            <g transform="matrix(8.8934,0,0,8.8934,274.66,185.041)">
                <path d="M2,-0.75C0.482,-0.75 -0.75,0.482 -0.75,2C-0.75,3.518 0.482,4.75 2,4.75C3.518,4.75 4.75,3.518 4.75,2C4.75,0.482 3.518,-0.75 2,-0.75ZM2,0.75C2.69,0.75 3.25,1.31 3.25,2C3.25,2.69 2.69,3.25 2,3.25C1.31,3.25 0.75,2.69 0.75,2C0.75,1.31 1.31,0.75 2,0.75Z" style="fill:rgb(255,233,157);"/>
            </g>
            <g transform="matrix(6.64929,0,0,6.64929,317.632,146.787)">
                <path d="M2,-0.75C0.482,-0.75 -0.75,0.482 -0.75,2C-0.75,3.518 0.482,4.75 2,4.75C3.518,4.75 4.75,3.518 4.75,2C4.75,0.482 3.518,-0.75 2,-0.75ZM2,0.75C2.69,0.75 3.25,1.31 3.25,2C3.25,2.69 2.69,3.25 2,3.25C1.31,3.25 0.75,2.69 0.75,2C0.75,1.31 1.31,0.75 2,0.75Z" style="fill:rgb(255,233,157);"/>
            </g>
            <g transform="matrix(8.8934,1.08913e-15,1.08913e-15,-8.8934,274.66,386.365)">
                <path d="M2,-0.75C0.482,-0.75 -0.75,0.482 -0.75,2C-0.75,3.518 0.482,4.75 2,4.75C3.518,4.75 4.75,3.518 4.75,2C4.75,0.482 3.518,-0.75 2,-0.75ZM2,0.75C2.69,0.75 3.25,1.31 3.25,2C3.25,2.69 2.69,3.25 2,3.25C1.31,3.25 0.75,2.69 0.75,2C0.75,1.31 1.31,0.75 2,0.75Z" style="fill:rgb(255,233,157);"/>
            </g>
            <g transform="matrix(6.64929,8.14303e-16,8.14303e-16,-6.64929,317.632,424.619)">
                <path d="M2,-0.75C0.482,-0.75 -0.75,0.482 -0.75,2C-0.75,3.518 0.482,4.75 2,4.75C3.518,4.75 4.75,3.518 4.75,2C4.75,0.482 3.518,-0.75 2,-0.75ZM2,0.75C2.69,0.75 3.25,1.31 3.25,2C3.25,2.69 2.69,3.25 2,3.25C1.31,3.25 0.75,2.69 0.75,2C0.75,1.31 1.31,0.75 2,0.75Z" style="fill:rgb(255,233,157);"/>
            </g>
        </g>
    </g>
</svg>
